<svg id="logosandtypes_com" data-name="logosandtypes com" xmlns="http://www.w3.org/2000/svg" xmlns:xlink="http://www.w3.org/1999/xlink" viewBox="0 0 150 150"><defs><style>.cls-1{fill:none;}.cls-2{fill-rule:evenodd;fill:url(#radial-gradient);}</style><radialGradient id="radial-gradient" cx="-222.95" cy="517.91" r="3.01" gradientTransform="matrix(-18.78, 11.25, 11.43, 19.07, -10030.66, -7289.19)" gradientUnits="userSpaceOnUse"><stop offset="0" stop-color="#ffb900"/><stop offset="0.75" stop-color="#fa5c86"/><stop offset="1" stop-color="#f95353"/></radialGradient></defs><path class="cls-1" d="M0,.2H150v150H0Z" transform="translate(0 -0.2)"/><path id="dots" class="cls-2" d="M102.68,43.56A27.84,27.84,0,1,1,74.84,15.74a27.83,27.83,0,0,1,27.84,27.82Zm-64,34.77a27.82,27.82,0,1,0,27.84,27.81A27.82,27.82,0,0,0,38.68,78.33Zm72.32,0a27.82,27.82,0,1,0,27.84,27.81A27.82,27.82,0,0,0,111,78.33Z" transform="translate(0 -0.2)"/></svg>