<svg
   xmlns="http://www.w3.org/2000/svg"
   viewBox="0 0 64 88">
  <path
     d="m 41.999971,21.999985 12.06499,2.279998 9.934995,-2.279998 L 41.999971,0 38.964972,10.429993 Z"
     fill="#56368a" />
  <path
     d="M 41.999971,21.999985 V 0 H 5.9999959 C 2.6849982,0 0,2.6849982 0,5.9999959 V 81.999944 c 0,3.314998 2.6849982,5.999996 5.9999959,5.999996 H 57.99996 c 3.314998,0 5.999996,-2.684998 5.999996,-5.999996 V 21.999985 Z"
     fill="#7248b9" />
  <path
     d="m 16.999988,63.499958 c -1.654999,0 -2.999997,-1.345 -2.999997,-2.999999 0,-1.655 1.344998,-2.999997 2.999997,-2.999997 1.654998,0 2.999998,1.344997 2.999998,2.999997 0,1.654999 -1.345,2.999999 -2.999998,2.999999 z m 0,-11.999993 c -1.654999,0 -2.999997,-1.344999 -2.999997,-2.999998 0,-1.654999 1.344998,-2.999997 2.999997,-2.999997 1.654998,0 2.999998,1.344998 2.999998,2.999997 0,1.654999 -1.345,2.999998 -2.999998,2.999998 z m 0,-11.999991 c -1.654999,0 -2.999997,-1.345 -2.999997,-2.999998 0,-1.654999 1.344998,-2.999998 2.999997,-2.999998 1.654998,0 2.999998,1.344999 2.999998,2.999998 0,1.654998 -1.345,2.999998 -2.999998,2.999998 z M 49.999965,62.999957 H 24.999982 V 57.99996 h 24.999983 z m 0,-11.999992 H 24.999982 v -4.999997 h 24.999983 z m 0,-11.999992 H 24.999982 v -4.999996 h 24.999983 z"
     fill="#fff" />
</svg>
